<svg height="512pt" viewBox="0 0 512.001 512" width="512pt" xmlns="http://www.w3.org/2000/svg"><path d="m447.996094 336.007812-180-240c-2.871094-3.84375-7.375-5.28125-11.996094-5.289062v269.28125h180c5.683594 0 10.871094-3.207031 13.417969-8.289062 2.535156-5.085938 1.992187-11.164063-1.421875-15.703126zm0 0" fill="#a8d3d8"/><path d="m250.375 31.089844c-2.949219 1.195312-5.527344 3.3125-7.234375 6.191406l-180 300c-2.785156 4.644531-2.855469 10.414062-.191406 15.117188 2.667969 4.699218 7.648437 7.601562 13.050781 7.601562h174.375zm0 0" fill="#3aaaff"/><path d="m271 0v405c0 8.398438-6.597656 15-15 15-8.398438 0-15-6.601562-15-15v-390c0-8.402344 6.601562-15 15-15zm0 0" fill="#384949"/><path d="m480.101562 409.800781-25.800781 82.625c-15.898437 7.5-35.101562 5.402344-48.300781-7.800781-16.5-16.5-43.5-16.5-60 0s-43.5 16.5-60 0c-8.402344-8.398438-19.199219-12.300781-30-12.300781s-21.597656 3.902343-30 12.300781c-16.5 16.5-43.5 16.5-60 0s-43.5-16.5-60 0c-13.199219 13.203125-32.402344 15.300781-48.300781 7.800781l-25.800781-82.625c-1.800782-4.5-.898438-9.601562 1.800781-13.5 3-3.902343 7.503906-6.300781 12.300781-6.300781h420c4.800781 0 9.300781 2.398438 12.300781 6.300781 2.699219 3.898438 3.601563 9 1.800781 13.5zm0 0" fill="#4a696f"/><path d="m361 15c0-8.289062-6.707031-15-15-15h-84.996094v90h24.996094c41.355469 0 75-33.648438 75-75zm0 0" fill="#cc2e43"/><path d="m256 420v-420h15v405c0 8.398438-6.597656 15-15 15zm0 0" fill="#293939"/><path d="m480.101562 409.800781-25.800781 82.625c-15.898437 7.5-35.101562 5.402344-48.300781-7.800781-16.5-16.5-43.5-16.5-60 0s-43.5 16.5-60 0c-8.402344-8.398438-19.199219-12.300781-30-12.300781v-82.324219h210c4.800781 0 9.300781 2.398438 12.300781 6.300781 2.699219 3.898438 3.601563 9 1.800781 13.5zm0 0" fill="#3e5959"/><path d="m512 472.324219c0 8.101562-6.597656 15-15 15-7.199219 0-15.097656 2.703125-20.5 7.800781-11.101562 11.402344-25.800781 16.800781-40.5 16.800781s-29.398438-5.398437-40.496094-16.800781c-10.804687-10.5-28.203125-10.5-39.003906 0-22.199219 22.5-58.796875 22.5-80.996094 0-5.402344-5.097656-12.304687-7.800781-19.503906-7.800781s-14.097656 2.703125-19.5 7.800781c-22.199219 22.5-58.800781 22.5-81 0-10.800781-10.5-28.199219-10.5-39 0-22.199219 22.5-58.800781 22.5-81 0-5.402344-5.097656-13.300781-7.800781-20.5-7.800781-8.402344 0-15-6.898438-15-15 0-8.398438 6.597656-15 15-15 15.300781 0 30.699219 6 41.5 16.800781 10.800781 10.5 28.199219 10.5 39 0 22.199219-22.5 58.800781-22.5 81 0 10.5 10.203125 28.5 10.203125 39 0 11.101562-11.097656 25.800781-16.800781 40.5-16.800781s29.398438 5.703125 40.496094 16.800781c10.503906 10.203125 28.5 10.203125 39.003906 0 22.199219-22.5 58.796875-22.5 80.996094 0 10.804687 10.5 28.203125 10.5 39.003906 0 10.800781-10.800781 26.199219-16.800781 41.496094-16.800781 8.40625 0 15.003906 6.601562 15.003906 15zm0 0" fill="#a8ebfa"/><path d="m512 472.324219c0 8.101562-6.597656 15-15 15-7.199219 0-15.097656 2.703125-20.5 7.800781-11.101562 11.402344-25.800781 16.800781-40.5 16.800781s-29.398438-5.398437-40.496094-16.800781c-10.804687-10.5-28.203125-10.5-39.003906 0-22.199219 22.5-58.796875 22.5-80.996094 0-5.402344-5.097656-12.304687-7.800781-19.503906-7.800781v-30c14.699219 0 29.398438 5.703125 40.5 16.800781 10.5 10.203125 28.5 10.203125 39 0 22.199219-22.5 58.800781-22.5 81 0 10.800781 10.5 28.199219 10.5 39 0 10.800781-10.800781 26.199219-16.800781 41.5-16.800781 8.402344 0 15 6.601562 15 15zm0 0" fill="#76e2f8"/></svg>